<svg width="172" height="89" viewBox="0 0 172 89" fill="none" xmlns="http://www.w3.org/2000/svg">
<rect width="105.582" height="22.9963" rx="3" transform="matrix(0.999329 -0.0366237 0.0536997 0.998557 31.6262 65.3787)" fill="black"/>
<path d="M42.0343 79.8395L43.2776 71.8742L45.1616 71.8052L43.4186 81.3511L40.8241 81.4462L38.0633 72.0653L39.9473 71.9963L42.0343 79.8395ZM53.0034 80.9998L47.1041 81.216L46.5952 71.7527L52.4945 71.5365L52.5832 73.1845L48.5551 73.3321L48.6649 75.3731L52.3123 75.2394L52.4009 76.8874L48.7535 77.0211L48.8868 79.4994L52.9148 79.3518L53.0034 80.9998ZM58.745 76.312C58.9331 76.3432 59.0985 76.426 59.2414 76.5605C59.3882 76.6906 59.5717 76.9506 59.7918 77.3406L61.6876 80.6816L59.6323 80.7569L58.362 78.4091C58.3245 78.3428 58.2751 78.2514 58.2138 78.1351C57.8413 77.4332 57.4288 77.0906 56.9763 77.1072L56.38 77.129L56.5811 80.8687L54.7098 80.9373L54.2009 71.4739L56.9032 71.3749C58.1211 71.3303 59.006 71.5138 59.5578 71.9254C60.1138 72.3369 60.418 73.0286 60.4702 74.0005C60.5052 74.6512 60.3745 75.1747 60.078 75.5709C59.7815 75.967 59.3371 76.2141 58.745 76.312ZM56.1567 72.9773L56.2955 75.5571L57.1772 75.5247C57.6889 75.506 58.0494 75.3933 58.2586 75.1866C58.4718 74.9756 58.566 74.6398 58.5413 74.1792C58.5165 73.7186 58.3888 73.393 58.1582 73.2024C57.9277 73.0119 57.5544 72.9261 57.0385 72.945L56.1567 72.9773ZM64.7058 76.4111C63.7434 76.0864 63.0846 75.7338 62.7294 75.353C62.3739 74.9681 62.1783 74.4417 62.1424 73.7741C62.0962 72.9163 62.3349 72.2322 62.8583 71.7219C63.3817 71.2116 64.1233 70.9388 65.0833 70.9036C65.5189 70.8877 65.9572 70.9224 66.3982 71.0079C66.839 71.0891 67.2782 71.2191 67.7158 71.3978L67.814 73.2233C67.397 72.9549 66.9773 72.7543 66.5549 72.6216C66.1325 72.4889 65.7184 72.43 65.3124 72.4449C64.8599 72.4615 64.518 72.565 64.2867 72.7556C64.0554 72.9461 63.9489 73.2104 63.9671 73.5484C63.9812 73.8104 64.0796 74.0249 64.2623 74.1918C64.449 74.3543 64.827 74.5288 65.3964 74.7154L66.2183 74.9902C66.9945 75.2412 67.5747 75.5904 67.959 76.0378C68.3432 76.4852 68.5542 77.0597 68.5919 77.7611C68.6433 78.7161 68.3983 79.4407 67.8571 79.9347C67.3199 80.4244 66.4804 80.6901 65.3386 80.732C64.8691 80.7492 64.3945 80.7094 63.9148 80.6127C63.4394 80.52 62.976 80.3719 62.5244 80.1682L62.4204 78.235C62.9385 78.5717 63.4348 78.8181 63.9093 78.9743C64.388 79.1304 64.8557 79.2 65.3125 79.1833C65.7734 79.1664 66.1252 79.0498 66.3678 78.8334C66.6102 78.6128 66.7212 78.3145 66.701 77.9384C66.6858 77.6553 66.5879 77.4112 66.4074 77.2061C66.2267 76.9968 65.9723 76.8367 65.6443 76.726L64.7058 76.4111ZM70.1924 72.5391L70.1038 70.8911L75.7431 70.6844L75.8317 72.3324L73.9477 72.4015L74.2794 78.5689L76.1634 78.4998L76.252 80.1478L70.6127 80.3545L70.5241 78.7065L72.4081 78.6374L72.0764 72.4701L70.1924 72.5391ZM80.8291 72.0096C80.3513 72.0271 80.0161 72.2955 79.8237 72.8149C79.6311 73.33 79.5653 74.156 79.6265 75.2927C79.6874 76.4251 79.8415 77.243 80.0889 77.7462C80.3361 78.2453 80.6986 78.486 81.1765 78.4685C81.6586 78.4508 81.996 78.1844 82.1886 77.6693C82.381 77.1499 82.4468 76.324 82.3859 75.1915C82.3247 74.0548 82.1706 73.237 81.9234 72.7379C81.676 72.2347 81.3112 71.9919 80.8291 72.0096ZM77.6791 75.364C77.592 73.7456 77.8053 72.512 78.319 71.6634C78.8369 70.8145 79.6435 70.37 80.7388 70.3299C81.8383 70.2896 82.6895 70.6733 83.2922 71.4811C83.8992 72.2887 84.2462 73.5017 84.3333 75.1202C84.4201 76.7344 84.2045 77.9659 83.6866 78.8147C83.1729 79.6634 82.3663 80.1079 81.2668 80.1482C80.1715 80.1884 79.3204 79.8046 78.7134 78.997C78.1106 78.1892 77.7659 76.9782 77.6791 75.364ZM85.4231 70.3297L87.434 70.256L90.4427 77.0365L90.0728 70.1593L91.7221 70.0988L92.231 79.5622L90.2328 79.6354L87.2115 72.8553L87.5813 79.7326L85.932 79.7931L85.4231 70.3297ZM103.155 71.3692L103.482 77.4605L103.99 77.4419C104.726 77.4149 105.238 77.1654 105.526 76.6934C105.814 76.2171 105.928 75.4232 105.868 74.3119C105.809 73.209 105.61 72.433 105.273 71.9839C104.935 71.5347 104.398 71.3236 103.662 71.3506L103.155 71.3692ZM101.193 69.7517L103.197 69.6783C104.745 69.6216 105.879 69.9505 106.6 70.665C107.32 71.3753 107.726 72.5672 107.816 74.2405C107.906 75.9181 107.63 77.1412 106.99 77.9099C106.348 78.6744 105.254 79.0849 103.706 79.1417L101.702 79.2151L101.193 69.7517ZM115.625 78.7048L109.726 78.921L109.217 69.4577L115.117 69.2415L115.205 70.8895L111.177 71.0371L111.287 73.0781L114.934 72.9444L115.023 74.5924L111.376 74.7261L111.509 77.2045L115.537 77.0568L115.625 78.7048ZM120.312 76.9708L121.555 69.0055L123.439 68.9365L121.696 78.4824L119.102 78.5774L116.341 69.1966L118.225 69.1276L120.312 76.9708ZM127.328 74.1161C126.365 73.7915 125.707 73.4388 125.351 73.058C124.996 72.6731 124.8 72.1467 124.764 71.4791C124.718 70.6213 124.957 69.9372 125.48 69.4269C126.004 68.9166 126.745 68.6438 127.705 68.6086C128.141 68.5927 128.579 68.6274 129.02 68.7129C129.461 68.7941 129.9 68.9241 130.338 69.1028L130.436 70.9283C130.019 70.6599 129.599 70.4593 129.177 70.3266C128.755 70.1939 128.34 70.135 127.934 70.1499C127.482 70.1665 127.14 70.27 126.909 70.4606C126.677 70.6511 126.571 70.9154 126.589 71.2534C126.603 71.5154 126.702 71.7299 126.884 71.8968C127.071 72.0593 127.449 72.2339 128.018 72.4205L128.84 72.6952C129.617 72.9462 130.197 73.2954 130.581 73.7428C130.965 74.1902 131.176 74.7647 131.214 75.4661C131.265 76.4211 131.02 77.1457 130.479 77.6397C129.942 78.1294 129.102 78.3951 127.961 78.437C127.491 78.4542 127.017 78.4144 126.537 78.3177C126.061 78.225 125.598 78.0769 125.146 77.8732L125.042 75.94C125.561 76.2767 126.057 76.5231 126.531 76.6793C127.01 76.8354 127.478 76.905 127.934 76.8883C128.395 76.8714 128.747 76.7548 128.99 76.5384C129.232 76.3178 129.343 76.0195 129.323 75.6434C129.308 75.3603 129.21 75.1162 129.029 74.9111C128.849 74.7018 128.594 74.5417 128.266 74.431L127.328 74.1161Z" fill="white"/>
<mask id="path-3-outside-1_106_391" maskUnits="userSpaceOnUse" x="51.5167" y="17.5844" width="37.6687" height="46.7688" fill="black">
<rect fill="white" x="51.5167" y="17.5844" width="37.6687" height="46.7688"/>
<path d="M76.6805 21.1007C76.9576 20.683 77.3352 20.4949 77.8135 20.5363L87.1386 21.3437C87.4175 21.3678 87.6298 21.4665 87.7754 21.6397C87.921 21.8129 87.9817 22.039 87.9576 22.318L84.49 62.3681C84.4658 62.6471 84.3671 62.8594 84.1939 63.005C84.0207 63.1506 83.7946 63.2113 83.5157 63.1872L74.071 62.3694C73.7921 62.3453 73.5798 62.2466 73.4342 62.0734C73.2886 61.9002 73.2278 61.6741 73.252 61.3951L75.3585 37.0662C75.3723 36.9068 75.3211 36.8019 75.205 36.7517C75.1287 36.705 75.0439 36.7579 74.9504 36.9104L71.0463 42.3539L70.3553 43.3781L70.2956 43.3729L66.9403 36.2168C66.8744 36.0505 66.78 35.9821 66.657 36.0116C66.5773 36.0047 66.5288 36.1009 66.5115 36.3002L64.4051 60.6292C64.3809 60.9081 64.2823 61.1204 64.1091 61.266C63.9359 61.4116 63.7098 61.4723 63.4308 61.4482L53.9862 60.6304C53.7072 60.6063 53.4949 60.5076 53.3493 60.3344C53.2037 60.1612 53.143 59.9351 53.1671 59.6562L56.6348 19.606C56.6589 19.327 56.7576 19.1147 56.9308 18.9691C57.104 18.8235 57.3301 18.7628 57.609 18.787L66.9342 19.5944C67.4522 19.6392 67.7919 19.8894 67.9532 20.3451L71.4751 28.3587C71.5444 28.4852 71.6172 28.5718 71.6935 28.6185C71.813 28.6289 71.8996 28.5561 71.9533 28.4001L76.6805 21.1007Z"/>
</mask>
<path d="M76.6805 21.1007C76.9576 20.683 77.3352 20.4949 77.8135 20.5363L87.1386 21.3437C87.4175 21.3678 87.6298 21.4665 87.7754 21.6397C87.921 21.8129 87.9817 22.039 87.9576 22.318L84.49 62.3681C84.4658 62.6471 84.3671 62.8594 84.1939 63.005C84.0207 63.1506 83.7946 63.2113 83.5157 63.1872L74.071 62.3694C73.7921 62.3453 73.5798 62.2466 73.4342 62.0734C73.2886 61.9002 73.2278 61.6741 73.252 61.3951L75.3585 37.0662C75.3723 36.9068 75.3211 36.8019 75.205 36.7517C75.1287 36.705 75.0439 36.7579 74.9504 36.9104L71.0463 42.3539L70.3553 43.3781L70.2956 43.3729L66.9403 36.2168C66.8744 36.0505 66.78 35.9821 66.657 36.0116C66.5773 36.0047 66.5288 36.1009 66.5115 36.3002L64.4051 60.6292C64.3809 60.9081 64.2823 61.1204 64.1091 61.266C63.9359 61.4116 63.7098 61.4723 63.4308 61.4482L53.9862 60.6304C53.7072 60.6063 53.4949 60.5076 53.3493 60.3344C53.2037 60.1612 53.143 59.9351 53.1671 59.6562L56.6348 19.606C56.6589 19.327 56.7576 19.1147 56.9308 18.9691C57.104 18.8235 57.3301 18.7628 57.609 18.787L66.9342 19.5944C67.4522 19.6392 67.7919 19.8894 67.9532 20.3451L71.4751 28.3587C71.5444 28.4852 71.6172 28.5718 71.6935 28.6185C71.813 28.6289 71.8996 28.5561 71.9533 28.4001L76.6805 21.1007Z" fill="#3FEDE2"/>
<path d="M76.6805 21.1007L75.8472 20.5479L75.8412 20.5571L76.6805 21.1007ZM84.1939 63.005L83.5504 62.2395L84.1939 63.005ZM73.4342 62.0734L74.1996 61.4299L74.1996 61.4299L73.4342 62.0734ZM75.205 36.7517L74.6823 37.6043L74.7429 37.6414L74.8081 37.6696L75.205 36.7517ZM74.9504 36.9104L75.763 37.4932L75.784 37.4638L75.8029 37.4331L74.9504 36.9104ZM71.0463 42.3539L70.2337 41.7711L70.2253 41.7828L70.2173 41.7947L71.0463 42.3539ZM70.3553 43.3781L70.2691 44.3744L70.8553 44.4251L71.1843 43.9374L70.3553 43.3781ZM70.2956 43.3729L69.3901 43.7975L69.6349 44.3195L70.2093 44.3692L70.2956 43.3729ZM66.9403 36.2168L66.0107 36.5852L66.0219 36.6137L66.0349 36.6414L66.9403 36.2168ZM66.657 36.0116L66.5707 37.0079L66.7324 37.0219L66.8902 36.9841L66.657 36.0116ZM64.1091 61.266L64.7525 62.0315L64.7525 62.0315L64.1091 61.266ZM53.3493 60.3344L52.5838 60.9779L52.5838 60.9779L53.3493 60.3344ZM56.9308 18.9691L56.2873 18.2037L56.9308 18.9691ZM67.9532 20.3451L67.0105 20.6788L67.0229 20.7136L67.0377 20.7474L67.9532 20.3451ZM71.4751 28.3587L70.5596 28.7611L70.5772 28.8012L70.5983 28.8396L71.4751 28.3587ZM71.6935 28.6185L71.1708 29.4711L71.372 29.5944L71.6072 29.6148L71.6935 28.6185ZM71.9533 28.4001L71.1139 27.8565L71.0475 27.9592L71.0077 28.0748L71.9533 28.4001ZM77.5139 21.6535C77.5738 21.5632 77.6127 21.5438 77.6175 21.5414C77.6198 21.5402 77.6456 21.5255 77.7272 21.5326L77.8997 19.54C77.5031 19.5057 77.1009 19.5643 76.7257 19.7513C76.3528 19.937 76.0644 20.2206 75.8472 20.5479L77.5139 21.6535ZM77.7272 21.5326L87.0523 22.34L87.2248 20.3474L77.8997 19.54L77.7272 21.5326ZM87.0523 22.34C87.0978 22.3439 87.1035 22.351 87.0855 22.3426C87.0763 22.3384 87.0634 22.3312 87.0488 22.3201C87.0341 22.3089 87.0209 22.2962 87.0099 22.2832L88.5409 20.9963C88.186 20.5741 87.7015 20.3887 87.2248 20.3474L87.0523 22.34ZM87.0099 22.2832C86.999 22.2702 86.9888 22.255 86.9803 22.2386C86.9719 22.2223 86.967 22.2083 86.9644 22.1986C86.9592 22.1794 86.9652 22.1862 86.9613 22.2317L88.9539 22.4042C88.9951 21.9275 88.8958 21.4184 88.5409 20.9963L87.0099 22.2832ZM86.9613 22.2317L83.4937 62.2819L85.4862 62.4544L88.9539 22.4042L86.9613 22.2317ZM83.4937 62.2819C83.4897 62.3274 83.4827 62.333 83.491 62.315C83.4953 62.3059 83.5025 62.2929 83.5136 62.2783C83.5247 62.2637 83.5374 62.2505 83.5504 62.2395L84.8374 63.7704C85.2596 63.4156 85.445 62.9311 85.4862 62.4544L83.4937 62.2819ZM83.5504 62.2395C83.5635 62.2286 83.5787 62.2183 83.595 62.2099C83.6113 62.2015 83.6253 62.1966 83.6351 62.194C83.6542 62.1888 83.6475 62.1948 83.6019 62.1909L83.4294 64.1834C83.9061 64.2247 84.4152 64.1253 84.8374 63.7704L83.5504 62.2395ZM83.6019 62.1909L74.1573 61.3731L73.9848 63.3657L83.4294 64.1834L83.6019 62.1909ZM74.1573 61.3731C74.1117 61.3692 74.1061 61.3621 74.1241 61.3705C74.1333 61.3747 74.1462 61.382 74.1608 61.393C74.1755 61.4042 74.1887 61.4169 74.1996 61.4299L72.6687 62.7169C73.0236 63.139 73.5081 63.3244 73.9848 63.3657L74.1573 61.3731ZM74.1996 61.4299C74.2106 61.4429 74.2208 61.4581 74.2293 61.4745C74.2377 61.4908 74.2426 61.5048 74.2452 61.5145C74.2503 61.5337 74.2443 61.5269 74.2483 61.4814L72.2557 61.3089C72.2145 61.7856 72.3138 62.2947 72.6687 62.7169L74.1996 61.4299ZM74.2483 61.4814L76.3547 37.1524L74.3622 36.9799L72.2557 61.3089L74.2483 61.4814ZM76.3547 37.1524C76.3717 36.9567 76.3585 36.6944 76.2291 36.4294C76.0897 36.1437 75.859 35.9451 75.6019 35.8339L74.8081 37.6696C74.6671 37.6086 74.5201 37.4875 74.4318 37.3066C74.3536 37.1464 74.359 37.0163 74.3622 36.9799L76.3547 37.1524ZM75.7277 35.8992C75.5595 35.7961 75.3469 35.727 75.1082 35.7361C74.877 35.7449 74.6892 35.8242 74.5554 35.9076C74.3147 36.0575 74.1713 36.2679 74.0979 36.3877L75.8029 37.4331C75.8229 37.4004 75.7688 37.508 75.6129 37.6051C75.5216 37.662 75.3751 37.7274 75.1842 37.7346C74.9857 37.7422 74.8124 37.684 74.6823 37.6043L75.7277 35.8992ZM74.1378 36.3276L70.2337 41.7711L71.8589 42.9367L75.763 37.4932L74.1378 36.3276ZM70.2173 41.7947L69.5263 42.8189L71.1843 43.9374L71.8753 42.9131L70.2173 41.7947ZM70.4416 42.3818L70.3818 42.3767L70.2093 44.3692L70.2691 44.3744L70.4416 42.3818ZM71.201 42.9484L67.8458 35.7923L66.0349 36.6414L69.3901 43.7975L71.201 42.9484ZM67.87 35.8485C67.8016 35.6759 67.6695 35.4213 67.4066 35.2309C67.1012 35.0097 66.7419 34.9629 66.4238 35.0392L66.8902 36.9841C66.8062 37.0042 66.6947 37.015 66.5678 36.9922C66.4385 36.9691 66.3249 36.9169 66.2335 36.8507C66.0651 36.7287 66.0131 36.5915 66.0107 36.5852L67.87 35.8485ZM66.7432 35.0154C66.4964 34.994 66.2445 35.0569 66.0315 35.2052C65.8374 35.3404 65.7278 35.5096 65.6679 35.6285C65.5564 35.8496 65.5271 36.0772 65.5153 36.2139L67.5078 36.3864C67.5132 36.3238 67.5168 36.4037 67.4538 36.5287C67.4181 36.5995 67.3366 36.7335 67.1746 36.8464C66.9936 36.9724 66.7777 37.0258 66.5707 37.0079L66.7432 35.0154ZM65.5153 36.2139L63.4088 60.5429L65.4014 60.7154L67.5078 36.3864L65.5153 36.2139ZM63.4088 60.5429C63.4049 60.5884 63.3978 60.594 63.4062 60.576C63.4104 60.5669 63.4176 60.5539 63.4287 60.5394C63.4399 60.5247 63.4526 60.5115 63.4656 60.5005L64.7525 62.0315C65.1747 61.6766 65.3601 61.1921 65.4014 60.7154L63.4088 60.5429ZM63.4656 60.5005C63.4786 60.4896 63.4938 60.4793 63.5102 60.4709C63.5265 60.4625 63.5405 60.4576 63.5502 60.455C63.5694 60.4498 63.5626 60.4558 63.5171 60.4519L63.3446 62.4444C63.8213 62.4857 64.3304 62.3863 64.7525 62.0315L63.4656 60.5005ZM63.5171 60.4519L54.0724 59.6342L53.8999 61.6267L63.3446 62.4444L63.5171 60.4519ZM54.0724 59.6342C54.0269 59.6302 54.0213 59.6231 54.0393 59.6315C54.0484 59.6357 54.0614 59.643 54.076 59.654C54.0906 59.6652 54.1038 59.6779 54.1148 59.6909L52.5838 60.9779C52.9387 61.4 53.4232 61.5854 53.8999 61.6267L54.0724 59.6342ZM54.1148 59.6909C54.1257 59.7039 54.136 59.7191 54.1444 59.7355C54.1528 59.7518 54.1577 59.7658 54.1603 59.7755C54.1655 59.7947 54.1595 59.7879 54.1634 59.7424L52.1709 59.5699C52.1296 60.0466 52.229 60.5557 52.5838 60.9779L54.1148 59.6909ZM54.1634 59.7424L57.631 19.6922L55.6385 19.5197L52.1709 59.5699L54.1634 59.7424ZM57.631 19.6922C57.635 19.6467 57.6421 19.6411 57.6337 19.6591C57.6295 19.6682 57.6222 19.6812 57.6111 19.6958C57.6 19.7105 57.5873 19.7237 57.5743 19.7346L56.2873 18.2037C55.8652 18.5586 55.6798 19.043 55.6385 19.5197L57.631 19.6922ZM57.5743 19.7346C57.5613 19.7456 57.5461 19.7558 57.5297 19.7643C57.5134 19.7727 57.4994 19.7776 57.4897 19.7802C57.4705 19.7853 57.4773 19.7793 57.5228 19.7832L57.6953 17.7907C57.2186 17.7494 56.7095 17.8488 56.2873 18.2037L57.5743 19.7346ZM57.5228 19.7832L66.8479 20.5906L67.0204 18.5981L57.6953 17.7907L57.5228 19.7832ZM66.8479 20.5906C66.9661 20.6009 66.9936 20.6276 66.9844 20.6208C66.9814 20.6186 66.9807 20.6169 66.9833 20.6207C66.9866 20.6253 66.9975 20.642 67.0105 20.6788L68.8959 20.0113C68.7585 19.6233 68.524 19.2709 68.1706 19.0106C67.8216 18.7535 67.4202 18.6327 67.0204 18.5981L66.8479 20.5906ZM67.0377 20.7474L70.5596 28.7611L72.3906 27.9564L68.8687 19.9427L67.0377 20.7474ZM70.5983 28.8396C70.7053 29.0347 70.8816 29.2938 71.1708 29.4711L72.2162 27.766C72.2903 27.8114 72.3319 27.8568 72.3472 27.875C72.3628 27.8937 72.3631 27.8982 72.3519 27.8779L70.5983 28.8396ZM71.6072 29.6148C71.9134 29.6413 72.232 29.5554 72.4916 29.3372C72.7231 29.1425 72.8384 28.9011 72.8989 28.7254L71.0077 28.0748C71.0145 28.0551 71.0597 27.928 71.2046 27.8062C71.3776 27.6608 71.5931 27.6061 71.7797 27.6223L71.6072 29.6148ZM72.7926 28.9437L77.5199 21.6443L75.8412 20.5571L71.1139 27.8565L72.7926 28.9437Z" fill="black" mask="url(#path-3-outside-1_106_391)"/>
<mask id="path-5-outside-2_106_391" maskUnits="userSpaceOnUse" x="25.4726" y="20.081" width="35.6776" height="48.8397" fill="black">
<rect fill="white" x="25.4726" y="20.081" width="35.6776" height="48.8397"/>
<path d="M55.9526 21.4265C56.2508 21.4092 56.49 21.4807 56.6703 21.6412C56.8506 21.8016 56.9494 22.0309 56.9668 22.3291L57.4544 30.6989C57.4718 30.9971 57.4002 31.2363 57.2398 31.4166C57.0793 31.5969 56.85 31.6957 56.5519 31.7131L49.0127 32.1523C48.7571 32.1672 48.6367 32.3024 48.6516 32.558L50.5797 65.6539C50.5971 65.9521 50.5256 66.1913 50.3651 66.3716C50.2047 66.5519 49.9754 66.6507 49.6772 66.6681L39.5823 67.2562C39.2842 67.2736 39.0449 67.202 38.8646 67.0416C38.6843 66.8811 38.5855 66.6518 38.5681 66.3537L36.64 33.2578C36.6251 33.0022 36.4899 32.8819 36.2343 32.8968L28.8868 33.3248C28.5886 33.3422 28.3494 33.2707 28.1691 33.1102C27.9888 32.9497 27.8899 32.7204 27.8726 32.4223L27.385 24.0525C27.3676 23.7543 27.4391 23.5151 27.5996 23.3348C27.76 23.1545 27.9893 23.0556 28.2875 23.0383L55.9526 21.4265Z"/>
</mask>
<path d="M55.9526 21.4265C56.2508 21.4092 56.49 21.4807 56.6703 21.6412C56.8506 21.8016 56.9494 22.0309 56.9668 22.3291L57.4544 30.6989C57.4718 30.9971 57.4002 31.2363 57.2398 31.4166C57.0793 31.5969 56.85 31.6957 56.5519 31.7131L49.0127 32.1523C48.7571 32.1672 48.6367 32.3024 48.6516 32.558L50.5797 65.6539C50.5971 65.9521 50.5256 66.1913 50.3651 66.3716C50.2047 66.5519 49.9754 66.6507 49.6772 66.6681L39.5823 67.2562C39.2842 67.2736 39.0449 67.202 38.8646 67.0416C38.6843 66.8811 38.5855 66.6518 38.5681 66.3537L36.64 33.2578C36.6251 33.0022 36.4899 32.8819 36.2343 32.8968L28.8868 33.3248C28.5886 33.3422 28.3494 33.2707 28.1691 33.1102C27.9888 32.9497 27.8899 32.7204 27.8726 32.4223L27.385 24.0525C27.3676 23.7543 27.4391 23.5151 27.5996 23.3348C27.76 23.1545 27.9893 23.0556 28.2875 23.0383L55.9526 21.4265Z" fill="#B176FF"/>
<path d="M50.3651 66.3716L51.1122 67.0364L51.1122 67.0364L50.3651 66.3716ZM28.1691 33.1102L28.8339 32.3632L28.8339 32.3632L28.1691 33.1102ZM27.5996 23.3348L28.3466 23.9996L28.3466 23.9996L27.5996 23.3348ZM56.0108 22.4248C56.0657 22.4216 56.0807 22.4287 56.0691 22.4252C56.0632 22.4235 56.0529 22.4197 56.0401 22.4126C56.0272 22.4055 56.0154 22.397 56.0055 22.3882L57.3351 20.8941C56.9118 20.5175 56.3907 20.3993 55.8944 20.4282L56.0108 22.4248ZM56.0055 22.3882C55.9956 22.3794 55.9858 22.3686 55.9772 22.3567C55.9688 22.3448 55.9638 22.335 55.9613 22.3293C55.9566 22.3182 55.9653 22.3323 55.9685 22.3872L57.9651 22.2709C57.9362 21.7746 57.7583 21.2708 57.3351 20.8941L56.0055 22.3882ZM55.9685 22.3872L56.4561 30.7571L58.4527 30.6407L57.9651 22.2709L55.9685 22.3872ZM56.4561 30.7571C56.4593 30.812 56.4523 30.827 56.4557 30.8154C56.4575 30.8095 56.4613 30.7992 56.4683 30.7864C56.4755 30.7735 56.4839 30.7617 56.4928 30.7518L57.9868 32.0814C58.3635 31.6581 58.4816 31.137 58.4527 30.6407L56.4561 30.7571ZM56.4928 30.7518C56.5016 30.7419 56.5123 30.7321 56.5243 30.7235C56.5361 30.7151 56.546 30.7101 56.5516 30.7076C56.5627 30.7028 56.5486 30.7116 56.4937 30.7148L56.61 32.7114C57.1063 32.6825 57.6102 32.5046 57.9868 32.0814L56.4928 30.7518ZM56.4937 30.7148L48.9545 31.154L49.0708 33.1506L56.61 32.7114L56.4937 30.7148ZM48.9545 31.154C48.6728 31.1704 48.2824 31.2645 47.9837 31.6001C47.685 31.9357 47.6369 32.3345 47.6533 32.6162L49.6499 32.4998C49.6515 32.5259 49.6561 32.7293 49.4778 32.9297C49.2994 33.1301 49.0969 33.1491 49.0708 33.1506L48.9545 31.154ZM47.6533 32.6162L49.5814 65.7121L51.5781 65.5957L49.6499 32.4998L47.6533 32.6162ZM49.5814 65.7121C49.5846 65.767 49.5776 65.782 49.581 65.7704C49.5828 65.7645 49.5866 65.7542 49.5937 65.7414C49.6008 65.7285 49.6093 65.7167 49.6181 65.7068L51.1122 67.0364C51.4888 66.6131 51.607 66.092 51.5781 65.5957L49.5814 65.7121ZM49.6181 65.7068C49.6269 65.6969 49.6377 65.6871 49.6496 65.6785C49.6615 65.6701 49.6713 65.6651 49.677 65.6626C49.688 65.6578 49.674 65.6666 49.619 65.6698L49.7354 67.6664C50.2317 67.6375 50.7355 67.4596 51.1122 67.0364L49.6181 65.7068ZM49.619 65.6698L39.5242 66.2579L39.6405 68.2545L49.7354 67.6664L49.619 65.6698ZM39.5242 66.2579C39.4692 66.2611 39.4542 66.2541 39.4658 66.2575C39.4717 66.2593 39.4821 66.2631 39.4948 66.2701C39.5077 66.2773 39.5195 66.2857 39.5294 66.2946L38.1998 67.7886C38.6231 68.1653 39.1442 68.2834 39.6405 68.2545L39.5242 66.2579ZM39.5294 66.2946C39.5393 66.3034 39.5491 66.3141 39.5577 66.3261C39.5662 66.3379 39.5712 66.3478 39.5736 66.3534C39.5784 66.3645 39.5696 66.3504 39.5664 66.2955L37.5698 66.4118C37.5987 66.9081 37.7766 67.412 38.1998 67.7886L39.5294 66.2946ZM39.5664 66.2955L37.6383 33.1996L35.6417 33.3159L37.5698 66.4118L39.5664 66.2955ZM37.6383 33.1996C37.6219 32.918 37.5278 32.5275 37.1922 32.2288C36.8566 31.9302 36.4578 31.8821 36.1762 31.8985L36.2925 33.8951C36.2664 33.8966 36.063 33.9012 35.8626 33.7229C35.6622 33.5446 35.6432 33.342 35.6417 33.3159L37.6383 33.1996ZM36.1762 31.8985L28.8286 32.3265L28.9449 34.3231L36.2925 33.8951L36.1762 31.8985ZM28.8286 32.3265C28.7737 32.3297 28.7587 32.3227 28.7702 32.3261C28.7762 32.3279 28.7865 32.3317 28.7993 32.3388C28.8121 32.3459 28.824 32.3544 28.8339 32.3632L27.5043 33.8572C27.9276 34.2339 28.4486 34.352 28.9449 34.3231L28.8286 32.3265ZM28.8339 32.3632C28.8438 32.372 28.8536 32.3827 28.8621 32.3947C28.8706 32.4065 28.8756 32.4164 28.8781 32.4221C28.8828 32.4331 28.8741 32.4191 28.8709 32.3641L26.8743 32.4804C26.9032 32.9767 27.081 33.4806 27.5043 33.8572L28.8339 32.3632ZM28.8709 32.3641L28.3833 23.9943L26.3867 24.1106L26.8743 32.4804L28.8709 32.3641ZM28.3833 23.9943C28.3801 23.9394 28.3871 23.9244 28.3837 23.9359C28.3819 23.9419 28.3781 23.9522 28.371 23.965C28.3639 23.9778 28.3554 23.9897 28.3466 23.9996L26.8525 22.67C26.4759 23.0933 26.3577 23.6143 26.3867 24.1106L28.3833 23.9943ZM28.3466 23.9996C28.3378 24.0095 28.327 24.0193 28.3151 24.0278C28.3032 24.0363 28.2934 24.0413 28.2877 24.0437C28.2767 24.0485 28.2907 24.0398 28.3457 24.0366L28.2293 22.04C27.733 22.0689 27.2292 22.2467 26.8525 22.67L28.3466 23.9996ZM28.3457 24.0366L56.0108 22.4248L55.8944 20.4282L28.2293 22.04L28.3457 24.0366Z" fill="black" mask="url(#path-5-outside-2_106_391)"/>
<mask id="path-7-outside-3_106_391" maskUnits="userSpaceOnUse" x="0.0705122" y="8.74543" width="40.645" height="55.477" fill="black">
<rect fill="white" x="0.0705122" y="8.74543" width="40.645" height="55.477"/>
<path d="M34.0899 10.5536C34.4251 10.5299 34.6952 10.6071 34.9003 10.785C35.1053 10.963 35.2197 11.2196 35.2434 11.5548L35.9085 20.9633C35.9322 21.2984 35.855 21.5686 35.677 21.7736C35.4991 21.9787 35.2425 22.0931 34.9073 22.1167L26.4325 22.7158C26.1452 22.7361 26.0117 22.8899 26.032 23.1772L28.6618 60.3804C28.6855 60.7155 28.6084 60.9857 28.4304 61.1907C28.2524 61.3958 27.9958 61.5101 27.6607 61.5338L16.313 62.336C15.9778 62.3597 15.7077 62.2825 15.5026 62.1046C15.2976 61.9266 15.1832 61.67 15.1595 61.3348L12.5297 24.1317C12.5094 23.8444 12.3556 23.7109 12.0683 23.7312L3.80891 24.315C3.47375 24.3387 3.20364 24.2616 2.99858 24.0836C2.79352 23.9056 2.67914 23.649 2.65545 23.3139L1.99038 13.9054C1.96669 13.5702 2.04383 13.3001 2.22182 13.095C2.3998 12.89 2.65637 12.7756 2.99154 12.7519L34.0899 10.5536Z"/>
</mask>
<path d="M34.0899 10.5536C34.4251 10.5299 34.6952 10.6071 34.9003 10.785C35.1053 10.963 35.2197 11.2196 35.2434 11.5548L35.9085 20.9633C35.9322 21.2984 35.855 21.5686 35.677 21.7736C35.4991 21.9787 35.2425 22.0931 34.9073 22.1167L26.4325 22.7158C26.1452 22.7361 26.0117 22.8899 26.032 23.1772L28.6618 60.3804C28.6855 60.7155 28.6084 60.9857 28.4304 61.1907C28.2524 61.3958 27.9958 61.5101 27.6607 61.5338L16.313 62.336C15.9778 62.3597 15.7077 62.2825 15.5026 62.1046C15.2976 61.9266 15.1832 61.67 15.1595 61.3348L12.5297 24.1317C12.5094 23.8444 12.3556 23.7109 12.0683 23.7312L3.80891 24.315C3.47375 24.3387 3.20364 24.2616 2.99858 24.0836C2.79352 23.9056 2.67914 23.649 2.65545 23.3139L1.99038 13.9054C1.96669 13.5702 2.04383 13.3001 2.22182 13.095C2.3998 12.89 2.65637 12.7756 2.99154 12.7519L34.0899 10.5536Z" fill="#FF46B5"/>
<path d="M28.4304 61.1907L29.1856 61.8462L29.1856 61.8462L28.4304 61.1907ZM2.99858 24.0836L3.65407 23.3284L2.99858 24.0836ZM2.22182 13.095L2.97702 13.7505L2.97702 13.7505L2.22182 13.095ZM34.1605 11.5511C34.234 11.5459 34.2658 11.5543 34.2693 11.5552C34.2708 11.5557 34.2675 11.5548 34.2612 11.5515C34.2549 11.5481 34.2491 11.544 34.2448 11.5402L35.5558 10.0298C35.1051 9.63867 34.5526 9.5184 34.0194 9.55609L34.1605 11.5511ZM34.2448 11.5402C34.2405 11.5365 34.2356 11.5313 34.2313 11.5255C34.2271 11.5198 34.2258 11.5166 34.2265 11.5181C34.2279 11.5214 34.2407 11.5518 34.2459 11.6253L36.2409 11.4842C36.2032 10.9511 36.0064 10.421 35.5558 10.0298L34.2448 11.5402ZM34.2459 11.6253L34.911 21.0338L36.906 20.8928L36.2409 11.4842L34.2459 11.6253ZM34.911 21.0338C34.9162 21.1073 34.9078 21.1392 34.9068 21.1426C34.9064 21.1442 34.9072 21.1408 34.9106 21.1346C34.914 21.1282 34.9181 21.1224 34.9218 21.1181L36.4322 22.4291C36.8234 21.9784 36.9437 21.4259 36.906 20.8928L34.911 21.0338ZM34.9218 21.1181C34.9256 21.1138 34.9307 21.1089 34.9365 21.1047C34.9422 21.1005 34.9454 21.0992 34.944 21.0998C34.9407 21.1013 34.9103 21.114 34.8368 21.1192L34.9778 23.1143C35.511 23.0766 36.0411 22.8798 36.4322 22.4291L34.9218 21.1181ZM34.8368 21.1192L26.362 21.7183L26.503 23.7133L34.9778 23.1143L34.8368 21.1192ZM26.362 21.7183C26.0645 21.7393 25.6636 21.8431 25.3617 22.1909C25.0598 22.5387 25.0135 22.9503 25.0345 23.2477L27.0295 23.1067C27.0302 23.1168 27.0405 23.3078 26.8721 23.5019C26.7037 23.6959 26.5131 23.7126 26.503 23.7133L26.362 21.7183ZM25.0345 23.2477L27.6643 60.4509L29.6593 60.3099L27.0295 23.1067L25.0345 23.2477ZM27.6643 60.4509C27.6695 60.5244 27.6612 60.5563 27.6602 60.5597C27.6597 60.5613 27.6606 60.5579 27.6639 60.5517C27.6673 60.5453 27.6714 60.5395 27.6752 60.5352L29.1856 61.8462C29.5768 61.3955 29.697 60.843 29.6593 60.3099L27.6643 60.4509ZM27.6752 60.5352C27.6789 60.5309 27.6841 60.526 27.6899 60.5218C27.6956 60.5176 27.6988 60.5163 27.6973 60.5169C27.6941 60.5184 27.6637 60.5311 27.5902 60.5363L27.7312 62.5314C28.2643 62.4937 28.7944 62.2969 29.1856 61.8462L27.6752 60.5352ZM27.5902 60.5363L16.2425 61.3385L16.3835 63.3335L27.7312 62.5314L27.5902 60.5363ZM16.2425 61.3385C16.169 61.3437 16.1371 61.3353 16.1336 61.3343C16.1321 61.3339 16.1354 61.3347 16.1417 61.3381C16.148 61.3415 16.1538 61.3456 16.1581 61.3493L14.8472 62.8598C15.2978 63.2509 15.8503 63.3712 16.3835 63.3335L16.2425 61.3385ZM16.1581 61.3493C16.1624 61.3531 16.1673 61.3582 16.1716 61.364C16.1758 61.3698 16.1771 61.373 16.1764 61.3715C16.175 61.3682 16.1622 61.3378 16.157 61.2643L14.162 61.4053C14.1997 61.9385 14.3965 62.4686 14.8472 62.8598L16.1581 61.3493ZM16.157 61.2643L13.5272 24.0611L11.5322 24.2022L14.162 61.4053L16.157 61.2643ZM13.5272 24.0611C13.5062 23.7637 13.4024 23.3628 13.0546 23.0609C12.7068 22.759 12.2952 22.7127 11.9978 22.7337L12.1388 24.7287C12.1287 24.7294 11.9377 24.7397 11.7436 24.5713C11.5496 24.4029 11.5329 24.2123 11.5322 24.2022L13.5272 24.0611ZM11.9978 22.7337L3.7384 23.3175L3.87943 25.3125L12.1388 24.7287L11.9978 22.7337ZM3.7384 23.3175C3.66489 23.3227 3.63301 23.3144 3.62958 23.3134C3.62802 23.313 3.63137 23.3138 3.63762 23.3171C3.64396 23.3206 3.64976 23.3247 3.65407 23.3284L2.34309 24.8388C2.79377 25.23 3.34628 25.3502 3.87943 25.3125L3.7384 23.3175ZM3.65407 23.3284C3.65837 23.3321 3.66325 23.3373 3.66752 23.3431C3.67171 23.3488 3.67302 23.352 3.67236 23.3505C3.67091 23.3473 3.65816 23.3169 3.65296 23.2434L1.65794 23.3844C1.69563 23.9175 1.89241 24.4476 2.34309 24.8388L3.65407 23.3284ZM3.65296 23.2434L2.98789 13.8348L0.992867 13.9759L1.65794 23.3844L3.65296 23.2434ZM2.98789 13.8348C2.98269 13.7613 2.99104 13.7294 2.99202 13.726C2.99247 13.7245 2.99162 13.7278 2.98827 13.7341C2.98487 13.7404 2.98076 13.7462 2.97702 13.7505L1.46661 12.4395C1.07544 12.8902 0.95518 13.4427 0.992867 13.9759L2.98789 13.8348ZM2.97702 13.7505C2.97328 13.7548 2.96812 13.7597 2.96232 13.764C2.95661 13.7682 2.95341 13.7695 2.95489 13.7688C2.95814 13.7674 2.98854 13.7546 3.06205 13.7494L2.92102 11.7544C2.38788 11.7921 1.85778 11.9889 1.46661 12.4395L2.97702 13.7505ZM3.06205 13.7494L34.1605 11.5511L34.0194 9.55609L2.92102 11.7544L3.06205 13.7494Z" fill="black" mask="url(#path-7-outside-3_106_391)"/>
<mask id="path-9-outside-4_106_391" maskUnits="userSpaceOnUse" x="84.895" y="14.8005" width="34.9131" height="51.3767" fill="black">
<rect fill="white" x="84.895" y="14.8005" width="34.9131" height="51.3767"/>
<path d="M104.292 63.4189C100.082 63.7653 96.6003 62.8102 93.846 60.5538C91.0917 58.2973 89.5449 55.1067 89.2056 50.982L87.6734 32.3569C87.3341 28.2322 88.3191 24.8547 90.6286 22.2245C92.9806 19.5908 96.2827 18.099 100.535 17.7492C104.745 17.4029 108.225 18.3367 110.976 20.5506C113.727 22.7645 115.272 25.9339 115.611 30.0586L115.637 30.3775C115.662 30.6752 115.598 30.9373 115.445 31.1639C115.289 31.348 115.062 31.4523 114.764 31.4768L104.713 32.6248C104.075 32.6772 103.731 32.4058 103.683 31.8105L103.551 30.2159C103.492 29.493 103.253 28.9347 102.836 28.5409C102.46 28.1437 101.975 27.9695 101.38 28.0185C100.785 28.0675 100.313 28.3203 99.9653 28.7771C99.6601 29.2303 99.5372 29.8183 99.5967 30.5412L101.281 51.0161C101.341 51.7389 101.558 52.299 101.933 52.6963C102.347 53.0475 102.852 53.1986 103.447 53.1496C104.043 53.1007 104.495 52.8708 104.803 52.4601C105.151 52.0034 105.295 51.4136 105.236 50.6907L105.094 48.9685C105.045 48.3732 105.339 48.0493 105.977 47.9968L116.082 47.4867C116.379 47.4622 116.622 47.5493 116.809 47.7479C116.993 47.904 117.098 48.1309 117.122 48.4285L117.143 48.6837C117.367 51.4051 116.969 53.8567 115.95 56.0382C114.97 58.1738 113.462 59.8818 111.427 61.1623C109.434 62.4394 107.056 63.1916 104.292 63.4189Z"/>
</mask>
<path d="M104.292 63.4189C100.082 63.7653 96.6003 62.8102 93.846 60.5538C91.0917 58.2973 89.5449 55.1067 89.2056 50.982L87.6734 32.3569C87.3341 28.2322 88.3191 24.8547 90.6286 22.2245C92.9806 19.5908 96.2827 18.099 100.535 17.7492C104.745 17.4029 108.225 18.3367 110.976 20.5506C113.727 22.7645 115.272 25.9339 115.611 30.0586L115.637 30.3775C115.662 30.6752 115.598 30.9373 115.445 31.1639C115.289 31.348 115.062 31.4523 114.764 31.4768L104.713 32.6248C104.075 32.6772 103.731 32.4058 103.683 31.8105L103.551 30.2159C103.492 29.493 103.253 28.9347 102.836 28.5409C102.46 28.1437 101.975 27.9695 101.38 28.0185C100.785 28.0675 100.313 28.3203 99.9653 28.7771C99.6601 29.2303 99.5372 29.8183 99.5967 30.5412L101.281 51.0161C101.341 51.7389 101.558 52.299 101.933 52.6963C102.347 53.0475 102.852 53.1986 103.447 53.1496C104.043 53.1007 104.495 52.8708 104.803 52.4601C105.151 52.0034 105.295 51.4136 105.236 50.6907L105.094 48.9685C105.045 48.3732 105.339 48.0493 105.977 47.9968L116.082 47.4867C116.379 47.4622 116.622 47.5493 116.809 47.7479C116.993 47.904 117.098 48.1309 117.122 48.4285L117.143 48.6837C117.367 51.4051 116.969 53.8567 115.95 56.0382C114.97 58.1738 113.462 59.8818 111.427 61.1623C109.434 62.4394 107.056 63.1916 104.292 63.4189Z" fill="#A7ED34"/>
<path d="M93.846 60.5538L94.4798 59.7802L93.846 60.5538ZM90.6286 22.2245L89.8827 21.5584L89.8772 21.5647L90.6286 22.2245ZM115.445 31.1639L116.208 31.8107L116.244 31.7684L116.275 31.7225L115.445 31.1639ZM114.764 31.4768L114.682 30.4801L114.667 30.4814L114.651 30.4832L114.764 31.4768ZM104.713 32.6248L104.795 33.6214L104.81 33.6201L104.826 33.6183L104.713 32.6248ZM102.836 28.5409L102.109 29.2275L102.129 29.2487L102.15 29.2686L102.836 28.5409ZM99.9653 28.7771L99.1696 28.1713L99.152 28.1944L99.1358 28.2185L99.9653 28.7771ZM101.933 52.6963L101.206 53.3829L101.244 53.4231L101.286 53.459L101.933 52.6963ZM104.803 52.4601L104.008 51.8543L104.004 51.8593L104.803 52.4601ZM105.977 47.9968L105.927 46.9981L105.911 46.9989L105.895 47.0002L105.977 47.9968ZM116.082 47.4867L116.132 48.4854L116.148 48.4846L116.164 48.4833L116.082 47.4867ZM116.809 47.7479L116.082 48.4345L116.12 48.4748L116.163 48.5106L116.809 47.7479ZM115.95 56.0382L115.044 55.615L115.041 55.6211L115.95 56.0382ZM111.427 61.1623L110.895 60.3159L110.888 60.3204L111.427 61.1623ZM104.21 62.4223C100.207 62.7516 96.9967 61.8422 94.4798 59.7802L93.2123 61.3273C96.2039 63.7782 99.9573 64.7789 104.374 64.4156L104.21 62.4223ZM94.4798 59.7802C91.9695 57.7237 90.5233 54.8022 90.2022 50.9L88.209 51.064C88.5666 55.4112 90.214 58.8709 93.2123 61.3273L94.4798 59.7802ZM90.2022 50.9L88.67 32.2749L86.6768 32.4389L88.209 51.064L90.2022 50.9ZM88.67 32.2749C88.3486 28.3672 89.282 25.2738 91.38 22.8843L89.8772 21.5647C87.3563 24.4357 86.3196 28.0972 86.6768 32.4389L88.67 32.2749ZM91.3745 22.8906C93.5214 20.4865 96.5638 19.0793 100.617 18.7458L100.453 16.7526C96.0017 17.1188 92.4398 18.6951 89.8827 21.5584L91.3745 22.8906ZM100.617 18.7458C104.625 18.4162 107.836 19.3071 110.349 21.3296L111.603 19.7716C108.614 17.3663 104.865 16.3896 100.453 16.7526L100.617 18.7458ZM110.349 21.3296C112.849 23.342 114.293 26.2379 114.614 30.1406L116.608 29.9766C116.25 25.6298 114.604 22.1871 111.603 19.7716L110.349 21.3296ZM114.614 30.1406L114.641 30.4595L116.634 30.2955L116.608 29.9766L114.614 30.1406ZM114.641 30.4595C114.648 30.5533 114.629 30.585 114.616 30.6053L116.275 31.7225C116.566 31.2896 116.675 30.797 116.634 30.2955L114.641 30.4595ZM114.682 30.5172C114.691 30.5071 114.701 30.497 114.713 30.4882C114.725 30.4794 114.735 30.4742 114.74 30.4716C114.751 30.4666 114.737 30.4756 114.682 30.4801L114.846 32.4734C115.342 32.4326 115.841 32.2428 116.208 31.8107L114.682 30.5172ZM114.651 30.4832L104.599 31.6312L104.826 33.6183L114.878 32.4703L114.651 30.4832ZM104.631 31.6281C104.589 31.6315 104.559 31.6316 104.538 31.6305C104.527 31.63 104.52 31.6292 104.515 31.6286C104.51 31.6279 104.507 31.6274 104.507 31.6274C104.51 31.6279 104.548 31.6377 104.597 31.676C104.62 31.6942 104.64 31.7148 104.656 31.7357C104.672 31.7563 104.681 31.7736 104.685 31.7838C104.694 31.8027 104.684 31.7911 104.679 31.7285L102.686 31.8925C102.725 32.3621 102.897 32.8819 103.357 33.2451C103.802 33.5973 104.339 33.6589 104.795 33.6214L104.631 31.6281ZM104.679 31.7285L104.548 30.1339L102.555 30.2979L102.686 31.8925L104.679 31.7285ZM104.548 30.1339C104.474 29.232 104.163 28.4177 103.522 27.8133L102.15 29.2686C102.344 29.4517 102.51 29.754 102.555 30.2979L104.548 30.1339ZM103.563 27.8543C102.958 27.2137 102.164 26.9507 101.298 27.0219L101.462 29.0152C101.787 28.9884 101.963 29.0737 102.109 29.2275L103.563 27.8543ZM101.298 27.0219C100.433 27.093 99.6968 27.4788 99.1696 28.1713L100.761 29.3828C100.929 29.1619 101.136 29.042 101.462 29.0152L101.298 27.0219ZM99.1358 28.2185C98.6676 28.9138 98.5281 29.7483 98.6 30.6232L100.593 30.4592C100.546 29.8883 100.653 29.5468 100.795 29.3356L99.1358 28.2185ZM98.6 30.6232L100.284 51.098L102.278 50.9341L100.593 30.4592L98.6 30.6232ZM100.284 51.098C100.356 51.9729 100.63 52.7735 101.206 53.3829L102.66 52.0096C102.485 51.8246 102.325 51.5049 102.278 50.9341L100.284 51.098ZM101.286 53.459C101.924 53.9997 102.699 54.2146 103.529 54.1463L103.365 52.153C103.005 52.1826 102.77 52.0953 102.58 51.9336L101.286 53.459ZM103.529 54.1463C104.358 54.0781 105.094 53.7379 105.603 53.061L104.004 51.8593C103.895 52.0037 103.727 52.1232 103.365 52.153L103.529 54.1463ZM105.599 53.0659C106.133 52.3649 106.307 51.5106 106.232 50.6087L104.239 50.7727C104.284 51.3166 104.169 51.642 104.008 51.8544L105.599 53.0659ZM106.232 50.6087L106.091 48.8865L104.097 49.0505L104.239 50.7727L106.232 50.6087ZM106.091 48.8865C106.086 48.824 106.093 48.8109 106.088 48.8309C106.085 48.8418 106.079 48.8604 106.066 48.8833C106.054 48.9065 106.038 48.93 106.018 48.9518C105.977 48.9975 105.94 49.0135 105.938 49.0144C105.938 49.0144 105.94 49.0135 105.945 49.012C105.95 49.0105 105.957 49.0085 105.967 49.0063C105.988 49.0018 106.018 48.9969 106.059 48.9935L105.895 47.0002C105.439 47.0377 104.92 47.1862 104.538 47.6065C104.144 48.0399 104.059 48.5809 104.097 49.0505L106.091 48.8865ZM106.028 48.9956L116.132 48.4854L116.031 46.488L105.927 46.9981L106.028 48.9956ZM116.164 48.4833C116.193 48.4809 116.182 48.4866 116.149 48.4749C116.134 48.4693 116.118 48.4617 116.105 48.4529C116.092 48.4442 116.085 48.4369 116.082 48.4345L117.536 47.0613C117.119 46.6193 116.568 46.4433 116 46.4901L116.164 48.4833ZM116.163 48.5106C116.153 48.502 116.142 48.4915 116.134 48.4798C116.125 48.4681 116.12 48.4584 116.117 48.4528C116.112 48.4418 116.121 48.4557 116.126 48.5105L118.119 48.3465C118.078 47.8511 117.888 47.3516 117.456 46.9852L116.163 48.5106ZM116.126 48.5105L116.147 48.7657L118.14 48.6017L118.119 48.3465L116.126 48.5105ZM116.147 48.7657C116.358 51.3373 115.98 53.6112 115.044 55.615L116.856 56.4615C117.959 54.1021 118.376 51.4729 118.14 48.6017L116.147 48.7657ZM115.041 55.6211C114.144 57.5757 112.769 59.1364 110.895 60.3159L111.96 62.0088C114.155 60.6273 115.796 58.7719 116.859 56.4554L115.041 55.6211ZM110.888 60.3204C109.054 61.4952 106.839 62.206 104.21 62.4223L104.374 64.4156C107.273 64.1771 109.815 63.3835 111.967 62.0043L110.888 60.3204Z" fill="black" mask="url(#path-9-outside-4_106_391)"/>
<mask id="path-11-outside-5_106_391" maskUnits="userSpaceOnUse" x="112.792" y="12.223" width="50.7035" height="46.8612" fill="black">
<rect fill="white" x="112.792" y="12.223" width="50.7035" height="46.8612"/>
<path d="M120.962 54.4873C120.642 54.4749 120.36 54.3199 120.115 54.0222C118.389 51.4576 117.044 48.5714 116.079 45.3637C115.116 42.124 114.717 38.3617 114.883 34.077C115.182 26.3387 117.435 19.861 121.639 14.6437C121.906 14.3658 122.2 14.2331 122.519 14.2454L129.954 14.5331C130.21 14.543 130.382 14.6298 130.472 14.7934C130.594 14.9582 130.587 15.1501 130.45 15.3689C128.896 18.287 127.63 21.2163 126.651 24.1566C125.674 27.065 125.109 30.5017 124.955 34.4668C124.801 38.4638 125.098 41.9499 125.848 44.9251C126.598 47.8683 127.634 50.8866 128.956 53.98C129.012 54.1744 129.04 54.2875 129.039 54.3195C129.026 54.6393 128.812 54.7911 128.397 54.775L120.962 54.4873ZM144.108 15.0809C144.428 15.0933 144.71 15.2483 144.954 15.546C146.681 18.1106 148.025 21.0128 148.989 24.2525C149.953 27.4602 150.353 31.2064 150.187 35.4912C149.888 43.2294 147.635 49.7072 143.431 54.9245C143.164 55.2024 142.87 55.3351 142.55 55.3228L135.116 55.0351C134.86 55.0252 134.671 54.9378 134.55 54.773C134.46 54.6094 134.483 54.4181 134.62 54.1992C136.174 51.2812 137.44 48.3679 138.417 45.4595C139.395 42.5192 139.961 39.0665 140.115 35.1014C140.269 31.1044 139.971 27.6343 139.221 24.6911C138.471 21.7159 137.436 18.6816 136.114 15.5881C136.058 15.3938 136.03 15.2807 136.031 15.2487C136.044 14.9289 136.258 14.7771 136.673 14.7932L144.108 15.0809ZM156.439 37.8948C154.968 37.8379 153.772 37.3112 152.85 36.3148C151.961 35.2877 151.544 34.0706 151.598 32.6637C151.633 31.7683 151.905 30.9463 152.414 30.1974C152.923 29.4485 153.57 28.8651 154.355 28.4471C155.172 28.0304 155.996 27.8381 156.827 27.8703C157.659 27.9025 158.449 28.1573 159.199 28.6346C159.982 29.1132 160.598 29.7455 161.048 30.5315C161.497 31.3175 161.705 32.1581 161.67 33.0535C161.616 34.4604 161.09 35.641 160.092 36.5951C159.128 37.5185 157.91 37.9517 156.439 37.8948ZM151.76 57.0242C151.28 57.0056 151.066 56.7571 151.116 56.2787L152.283 44.7472C152.324 44.5246 152.411 44.3518 152.543 44.2289C152.676 44.1059 152.855 44.0488 153.078 44.0575L159.602 44.3099C160.113 44.3297 160.311 44.6095 160.194 45.1494L157.06 56.6048C156.948 57.0168 156.684 57.2147 156.269 57.1987L151.76 57.0242Z"/>
</mask>
<path d="M120.962 54.4873C120.642 54.4749 120.36 54.3199 120.115 54.0222C118.389 51.4576 117.044 48.5714 116.079 45.3637C115.116 42.124 114.717 38.3617 114.883 34.077C115.182 26.3387 117.435 19.861 121.639 14.6437C121.906 14.3658 122.2 14.2331 122.519 14.2454L129.954 14.5331C130.21 14.543 130.382 14.6298 130.472 14.7934C130.594 14.9582 130.587 15.1501 130.45 15.3689C128.896 18.287 127.63 21.2163 126.651 24.1566C125.674 27.065 125.109 30.5017 124.955 34.4668C124.801 38.4638 125.098 41.9499 125.848 44.9251C126.598 47.8683 127.634 50.8866 128.956 53.98C129.012 54.1744 129.04 54.2875 129.039 54.3195C129.026 54.6393 128.812 54.7911 128.397 54.775L120.962 54.4873ZM144.108 15.0809C144.428 15.0933 144.71 15.2483 144.954 15.546C146.681 18.1106 148.025 21.0128 148.989 24.2525C149.953 27.4602 150.353 31.2064 150.187 35.4912C149.888 43.2294 147.635 49.7072 143.431 54.9245C143.164 55.2024 142.87 55.3351 142.55 55.3228L135.116 55.0351C134.86 55.0252 134.671 54.9378 134.55 54.773C134.46 54.6094 134.483 54.4181 134.62 54.1992C136.174 51.2812 137.44 48.3679 138.417 45.4595C139.395 42.5192 139.961 39.0665 140.115 35.1014C140.269 31.1044 139.971 27.6343 139.221 24.6911C138.471 21.7159 137.436 18.6816 136.114 15.5881C136.058 15.3938 136.03 15.2807 136.031 15.2487C136.044 14.9289 136.258 14.7771 136.673 14.7932L144.108 15.0809ZM156.439 37.8948C154.968 37.8379 153.772 37.3112 152.85 36.3148C151.961 35.2877 151.544 34.0706 151.598 32.6637C151.633 31.7683 151.905 30.9463 152.414 30.1974C152.923 29.4485 153.57 28.8651 154.355 28.4471C155.172 28.0304 155.996 27.8381 156.827 27.8703C157.659 27.9025 158.449 28.1573 159.199 28.6346C159.982 29.1132 160.598 29.7455 161.048 30.5315C161.497 31.3175 161.705 32.1581 161.67 33.0535C161.616 34.4604 161.09 35.641 160.092 36.5951C159.128 37.5185 157.91 37.9517 156.439 37.8948ZM151.76 57.0242C151.28 57.0056 151.066 56.7571 151.116 56.2787L152.283 44.7472C152.324 44.5246 152.411 44.3518 152.543 44.2289C152.676 44.1059 152.855 44.0488 153.078 44.0575L159.602 44.3099C160.113 44.3297 160.311 44.6095 160.194 45.1494L157.06 56.6048C156.948 57.0168 156.684 57.2147 156.269 57.1987L151.76 57.0242Z" fill="white"/>
<path d="M120.115 54.0222L119.286 54.5806L119.313 54.6202L119.343 54.6572L120.115 54.0222ZM116.079 45.3637L115.121 45.6487L115.122 45.6517L116.079 45.3637ZM121.639 14.6437L120.918 13.9509L120.888 13.9823L120.861 14.0162L121.639 14.6437ZM130.472 14.7934L129.595 15.2743L129.628 15.3333L129.668 15.3874L130.472 14.7934ZM130.45 15.3689L129.602 14.8396L129.583 14.8687L129.567 14.8989L130.45 15.3689ZM126.651 24.1566L127.599 24.4751L127.6 24.4724L126.651 24.1566ZM125.848 44.9251L124.878 45.1694L124.879 45.1722L125.848 44.9251ZM128.956 53.98L129.916 53.7007L129.899 53.6428L129.875 53.5872L128.956 53.98ZM121.001 53.4881C120.997 53.4879 120.996 53.4875 120.997 53.4878C120.999 53.4882 120.997 53.4881 120.992 53.4853C120.982 53.4798 120.945 53.4567 120.888 53.3873L119.343 54.6572C119.729 55.1264 120.26 55.4609 120.923 55.4866L121.001 53.4881ZM120.945 53.4639C119.279 50.989 117.975 48.1953 117.037 45.0757L115.122 45.6517C116.113 48.9474 117.499 51.9261 119.286 54.5806L120.945 53.4639ZM117.038 45.0786C116.113 41.9677 115.719 38.319 115.882 34.1156L113.884 34.0383C113.715 38.4045 114.119 42.2802 115.121 45.6487L117.038 45.0786ZM115.882 34.1156C116.175 26.5575 118.368 20.2959 122.418 15.2712L120.861 14.0162C116.501 19.4261 114.19 26.1199 113.884 34.0383L115.882 34.1156ZM122.361 15.3365C122.423 15.2716 122.462 15.2515 122.472 15.2468C122.477 15.2444 122.479 15.2444 122.477 15.2446C122.476 15.2449 122.477 15.2445 122.481 15.2447L122.558 13.2462C121.895 13.2205 121.339 13.5129 120.918 13.9509L122.361 15.3365ZM122.481 15.2447L129.915 15.5324L129.993 13.5339L122.558 13.2462L122.481 15.2447ZM129.915 15.5324C129.945 15.5335 129.902 15.5372 129.827 15.4993C129.739 15.4552 129.652 15.377 129.595 15.2743L131.349 14.3124C131.03 13.7313 130.453 13.5517 129.993 13.5339L129.915 15.5324ZM129.668 15.3874C129.603 15.3003 129.553 15.169 129.559 15.0222C129.564 14.8945 129.608 14.8289 129.602 14.8396L131.298 15.8983C131.428 15.6901 131.545 15.4191 131.557 15.0996C131.57 14.7609 131.463 14.4513 131.277 14.1993L129.668 15.3874ZM129.567 14.8989C127.989 17.8632 126.7 20.8439 125.702 23.8409L127.6 24.4724C128.56 21.5886 129.803 18.7109 131.333 15.839L129.567 14.8989ZM125.703 23.8381C124.688 26.8588 124.112 30.3941 123.956 34.4281L125.955 34.5054C126.105 30.6093 126.66 27.2712 127.599 24.4751L125.703 23.8381ZM123.956 34.4281C123.799 38.4932 124.099 42.0786 124.878 45.1694L126.817 44.6808C126.097 41.8211 125.803 38.4344 125.955 34.5054L123.956 34.4281ZM124.879 45.1722C125.643 48.1702 126.697 51.2372 128.036 54.3729L129.875 53.5872C128.572 50.5361 127.553 47.5664 126.817 44.6779L124.879 45.1722ZM127.996 54.2593C128.009 54.3041 128.019 54.3424 128.028 54.3746C128.037 54.4071 128.043 54.4312 128.047 54.448C128.049 54.4562 128.051 54.4615 128.051 54.4641C128.052 54.467 128.051 54.4651 128.05 54.4593C128.049 54.4546 128.047 54.4395 128.044 54.4174C128.043 54.406 128.041 54.3894 128.04 54.3688C128.039 54.3491 128.038 54.3186 128.039 54.2808L130.038 54.3582C130.043 54.2307 130.022 54.1228 130.018 54.1013C130.01 54.0558 130 54.0113 129.99 53.9733C129.971 53.8961 129.946 53.8033 129.916 53.7007L127.996 54.2593ZM128.039 54.2808C128.04 54.2539 128.048 54.1837 128.09 54.095C128.135 54.0005 128.206 53.9175 128.29 53.8576C128.441 53.7504 128.543 53.7799 128.435 53.7758L128.358 55.7743C128.666 55.7862 129.082 55.7478 129.447 55.4888C129.864 55.1935 130.023 54.7525 130.038 54.3582L128.039 54.2808ZM128.435 53.7758L121.001 53.4881L120.923 55.4866L128.358 55.7743L128.435 53.7758ZM144.954 15.546L145.784 14.9876L145.757 14.9479L145.727 14.911L144.954 15.546ZM148.989 24.2525L148.03 24.5375L148.031 24.5405L148.989 24.2525ZM143.431 54.9245L144.152 55.6173L144.182 55.5859L144.209 55.552L143.431 54.9245ZM134.55 54.773L133.673 55.2539L133.705 55.3129L133.745 55.367L134.55 54.773ZM134.62 54.1992L135.468 54.7286L135.487 54.6995L135.503 54.6693L134.62 54.1992ZM138.417 45.4595L139.365 45.778L139.366 45.7753L138.417 45.4595ZM139.221 24.6911L138.251 24.9354L138.252 24.9382L139.221 24.6911ZM136.114 15.5881L135.154 15.8674L135.171 15.9254L135.195 15.981L136.114 15.5881ZM144.069 16.0801C144.073 16.0803 144.074 16.0807 144.073 16.0803C144.071 16.08 144.073 16.0801 144.078 16.0829C144.088 16.0884 144.125 16.1115 144.182 16.1809L145.727 14.911C145.341 14.4418 144.81 14.1073 144.146 14.0816L144.069 16.0801ZM144.125 16.1043C145.789 18.5775 147.093 21.386 148.03 24.5375L149.947 23.9674C148.958 20.6397 147.572 17.6438 145.784 14.9876L144.125 16.1043ZM148.031 24.5405C148.957 27.6174 149.351 31.2488 149.188 35.4526L151.186 35.5299C151.355 31.1641 150.95 27.303 149.946 23.9645L148.031 24.5405ZM149.188 35.4526C148.895 43.0106 146.702 49.2723 142.652 54.297L144.209 55.552C148.569 50.1421 150.88 43.4482 151.186 35.5299L149.188 35.4526ZM142.709 54.2317C142.647 54.2966 142.608 54.3167 142.598 54.3214C142.593 54.3238 142.591 54.3238 142.593 54.3236C142.594 54.3233 142.593 54.3237 142.589 54.3235L142.512 56.322C143.175 56.3477 143.731 56.0553 144.152 55.6173L142.709 54.2317ZM142.589 54.3235L135.155 54.0358L135.077 56.0343L142.512 56.322L142.589 54.3235ZM135.155 54.0358C135.129 54.0348 135.153 54.0316 135.203 54.0546C135.258 54.0803 135.314 54.1241 135.354 54.1789L133.745 55.367C134.092 55.836 134.601 56.0159 135.077 56.0343L135.155 54.0358ZM135.427 54.292C135.486 54.4002 135.505 54.5232 135.493 54.6284C135.482 54.7179 135.452 54.7541 135.468 54.7286L133.772 53.6699C133.526 54.0631 133.345 54.6565 133.673 55.2539L135.427 54.292ZM135.503 54.6693C137.081 51.7063 138.369 48.7425 139.365 45.778L137.469 45.141C136.511 47.9933 135.267 50.856 133.737 53.7292L135.503 54.6693ZM139.366 45.7753C140.381 42.7244 140.958 39.1744 141.114 35.1401L139.115 35.0628C138.965 38.9585 138.41 42.3139 137.468 45.1438L139.366 45.7753ZM141.114 35.1401C141.271 31.0754 140.97 27.5046 140.189 24.4439L138.252 24.9382C138.972 27.764 139.267 31.1334 139.115 35.0628L141.114 35.1401ZM140.19 24.4468C139.427 21.4163 138.374 18.3323 137.034 15.1953L135.195 15.981C136.497 19.0308 137.515 22.0155 138.251 24.9354L140.19 24.4468ZM137.074 15.3088C137.061 15.2641 137.051 15.2258 137.042 15.1936C137.033 15.161 137.027 15.137 137.023 15.1202C137.02 15.1119 137.019 15.1067 137.019 15.1041C137.018 15.1012 137.019 15.1031 137.02 15.1089C137.02 15.1136 137.023 15.1287 137.026 15.1508C137.027 15.1622 137.029 15.1788 137.03 15.1994C137.031 15.2191 137.032 15.2496 137.031 15.2874L135.032 15.21C135.027 15.3375 135.048 15.4454 135.052 15.4669C135.06 15.5124 135.07 15.5569 135.08 15.5949C135.099 15.6721 135.124 15.7649 135.154 15.8674L137.074 15.3088ZM137.031 15.2874C137.029 15.3143 137.022 15.3845 136.98 15.4731C136.934 15.5676 136.864 15.6507 136.78 15.7106C136.629 15.8178 136.527 15.7883 136.635 15.7924L136.712 13.7939C136.404 13.782 135.988 13.8204 135.622 14.0794C135.206 14.3747 135.047 14.8157 135.032 15.21L137.031 15.2874ZM136.635 15.7924L144.069 16.0801L144.146 14.0816L136.712 13.7939L136.635 15.7924ZM152.85 36.3148L152.094 36.9692L152.104 36.9818L152.116 36.9941L152.85 36.3148ZM152.414 30.1974L153.241 30.7598L153.241 30.7598L152.414 30.1974ZM154.355 28.4471L153.901 27.5564L153.893 27.5604L153.885 27.5645L154.355 28.4471ZM159.199 28.6346L158.663 29.4783L158.67 29.483L158.677 29.4876L159.199 28.6346ZM161.048 30.5315L160.18 31.0283L160.18 31.0283L161.048 30.5315ZM160.092 36.5951L159.401 35.8724L159.401 35.8728L160.092 36.5951ZM151.116 56.2787L152.111 56.3838L152.111 56.3794L151.116 56.2787ZM152.283 44.7472L151.299 44.5676L151.292 44.6069L151.288 44.6465L152.283 44.7472ZM152.543 44.2289L153.223 44.9628L153.223 44.9628L152.543 44.2289ZM160.194 45.1494L161.158 45.4132L161.165 45.3874L161.171 45.3612L160.194 45.1494ZM157.06 56.6048L156.096 56.341L156.095 56.3424L157.06 56.6048ZM156.478 36.8956C155.247 36.8479 154.31 36.42 153.584 35.6356L152.116 36.9941C153.234 38.2025 154.689 38.8278 156.401 38.8941L156.478 36.8956ZM153.606 35.6604C152.89 34.8327 152.552 33.866 152.597 32.7023L150.599 32.625C150.535 34.2752 151.032 35.7426 152.094 36.9692L153.606 35.6604ZM152.597 32.7023C152.625 31.9964 152.836 31.3554 153.241 30.7598L151.587 29.635C150.974 30.5371 150.641 31.5403 150.599 32.625L152.597 32.7023ZM153.241 30.7598C153.661 30.1424 154.186 29.67 154.825 29.3298L153.885 27.5645C152.954 28.0602 152.186 28.7546 151.587 29.635L153.241 30.7598ZM154.81 29.3379C155.49 28.9908 156.145 28.8447 156.789 28.8696L156.866 26.8711C155.847 26.8316 154.854 27.07 153.901 27.5564L154.81 29.3379ZM156.789 28.8696C157.431 28.8944 158.051 29.0892 158.663 29.4783L159.736 27.791C158.848 27.2253 157.886 26.9106 156.866 26.8711L156.789 28.8696ZM158.677 29.4876C159.318 29.8796 159.814 30.3901 160.18 31.0283L161.915 30.0347C161.381 29.1009 160.645 28.3469 159.721 27.7817L158.677 29.4876ZM160.18 31.0283C160.538 31.6535 160.699 32.3089 160.671 33.0148L162.67 33.0921C162.712 32.0074 162.457 30.9815 161.915 30.0347L160.18 31.0283ZM160.671 33.0148C160.627 34.1682 160.207 35.1016 159.401 35.8724L160.783 37.3178C161.973 36.1803 162.605 34.7527 162.67 33.0921L160.671 33.0148ZM159.401 35.8728C158.653 36.5885 157.709 36.9432 156.478 36.8956L156.401 38.8941C158.112 38.9603 159.603 38.4485 160.784 37.3174L159.401 35.8728ZM151.799 56.0249C151.707 56.0214 151.852 56.0037 151.996 56.1704C152.14 56.3365 152.101 56.477 152.111 56.3838L150.122 56.1737C150.081 56.5589 150.125 57.0628 150.483 57.4774C150.841 57.8925 151.334 58.0084 151.721 58.0234L151.799 56.0249ZM152.111 56.3794L153.278 44.8479L151.288 44.6465L150.121 56.1781L152.111 56.3794ZM153.267 44.9268C153.273 44.8935 153.278 44.8878 153.272 44.8994C153.269 44.9053 153.264 44.9149 153.255 44.9266C153.247 44.9384 153.236 44.9508 153.223 44.9628L151.864 43.495C151.537 43.7983 151.369 44.1862 151.299 44.5676L153.267 44.9268ZM153.223 44.9628C153.178 45.0041 153.127 45.0317 153.082 45.0461C153.041 45.0593 153.022 45.056 153.04 45.0567L153.117 43.0582C152.695 43.0419 152.236 43.1511 151.864 43.495L153.223 44.9628ZM153.04 45.0567L159.563 45.3091L159.64 43.3106L153.117 43.0582L153.04 45.0567ZM159.563 45.3091C159.608 45.3109 159.59 45.3168 159.537 45.2946C159.476 45.2686 159.387 45.2119 159.316 45.1109C159.247 45.0133 159.231 44.9258 159.227 44.8908C159.224 44.8614 159.231 44.8719 159.216 44.9377L161.171 45.3612C161.253 44.9807 161.286 44.4347 160.951 43.9583C160.597 43.457 160.048 43.3264 159.64 43.3106L159.563 45.3091ZM159.229 44.8856L156.096 56.341L158.025 56.8687L161.158 45.4132L159.229 44.8856ZM156.095 56.3424C156.08 56.3974 156.086 56.3318 156.178 56.2623C156.221 56.2302 156.263 56.2127 156.293 56.2046C156.321 56.1972 156.329 56.2002 156.307 56.1994L156.23 58.1979C156.606 58.2125 157.019 58.1318 157.378 57.8622C157.735 57.5948 157.928 57.2243 158.025 56.8672L156.095 56.3424ZM156.307 56.1994L151.799 56.0249L151.721 58.0234L156.23 58.1979L156.307 56.1994Z" fill="black" mask="url(#path-11-outside-5_106_391)"/>
</svg>
